<svg id="Layer_1" data-name="Layer 1" xmlns="http://www.w3.org/2000/svg" viewBox="0 0 331.87 331.87"><title>addListIcon2</title><path d="M1279.19-7.16l19.88-23.11c2.07-2.4,4.12-4.81,6.21-7.19,4.39-5,7.54-5.22,12.67-.75,2.46,2.14,6.56,3.82,6.15,7.37-.64,5.52-2.53,10.78,2.37,15.45.72.68-.92,2.3-1.78,3.3q-12,14-24,28.07c-1.36,1.6-2.72,3.08-5.05,2.08-1.87-.8-3-2.69-.91-3.66,5.17-2.42,7.56-7.35,11.14-11.17,4.54-4.85,8.72-10,13.06-15.11,3-3.45,3-3.45-.49-7.64-8.7,10.12-16.67,20.88-26.18,30.05-10.67,10.3-13.9,21.8-13.34,36.4,1.08,28.26.33,56.6.3,84.9,0,14-8.36,22.41-22.3,22.42q-74.45,0-148.87,0c-13.9,0-22.52-8.49-22.53-22.35q-.06-93.41,0-186.82c0-14.23,8.48-22.63,22.73-22.67,19.15,0,38.3-.12,57.45.08,3.64,0,5.11-1,5.2-4.58a55.66,55.66,0,0,1,1-8.91c1.32-6.91,6.38-10.78,13.56-10.61,6.94.17,11.6,4.15,12.77,11,.29,1.64.54,3.29.72,4.94.9,8.12.89,8.12,8.83,8.12,16.32,0,32.63-.05,49,0,14,0,22.41,8.39,22.44,22.33C1279.22-39.69,1279.19-24.1,1279.19-7.16Zm-37.08,61.7c3.91,3.71,4.27,3.54,8.35-1.26,13.31-15.69,26.6-31.4,40.18-46.87,2.95-3.36,1.85-4.64-1.33-6.06-5.47-5.89-5.52-5.94-10.45-.24-12.58,14.53-25.08,29.13-37.68,43.65C1235.93,49.8,1235.85,49.73,1242.11,54.54Zm-2.95,14.61c-3.17,1.39-5.49,5.61-8.88,4.9s-4.41,1-6,2.72c-.89,1-1.7,2.06-2.66,3a2.07,2.07,0,0,1-2.75.31c-1.14-.84-1-2-.25-3.09,2.26-3.37,4.14-6.19,4.79-11,.91-6.66,5-13.61,9.76-19.28,7.82-9.3,15.8-18.46,23.68-27.71,1.49-1.74,3.15-3.35,3.15-6-.06-23,0-45.95-.08-68.92,0-3.7-2-5.88-5.94-5.88-9.65,0-19.31,0-29,0-1.8,0-3.07.34-3.86,2.3-2.4,6-7.26,8.53-13.41,8.57q-22.71.15-45.44,0c-5.89-.05-10.85-2.26-13.17-8.1-1.05-2.65-2.8-2.76-5.09-2.75-10.48.06-21,0-31.46,0-6.5,0-7.52,1-7.53,7.58q0,24.21,0,48.44,0,65.18,0,130.34c0,6.16,1.23,7.73,6.45,7.74,36.62,0,73.25,0,109.87.08,3,0,4.11-.8,4-3.92-.2-6.65-.12-13.32,0-20,.08-7.38,3-10.32,10.27-10.39q10-.1,20,0c3,0,4.58-.73,4.45-4.23-.28-7.48-.16-15-.21-22.47V48.47C1253,56.92,1247.2,64.21,1239.16,69.15Zm35.91-38.06a81.06,81.06,0,0,1-5.67,6.33c-4.31,3.83-5.47,8.44-5.4,14.18.31,24.15.13,48.3.12,72.45,0,9.35-2.94,12.36-12.13,12.36H1113.57c-10.24,0-12.65-2.39-12.65-12.61q0-88.69,0-177.39c0-9.7,3-12.71,12.89-12.78s20-.08,30,0c2.66,0,4.41-.2,4.34-3.65-.05-3.11-1.48-3.48-4-3.46-12.49.08-25-.09-37.48.08-9.87.14-16.6,6.93-16.61,16.77q-.07,94.7,0,189.38c0,10.49,6.7,17.27,17.15,17.29q75.45.12,150.91,0c9.74,0,16.91-7,17-16.66C1275.15,99.75,1275.07,66.11,1275.07,31.09ZM1185.15-73.47c-9.64,0-19.28,0-28.92,0-1.37,0-3-.54-3.83,1.39a11.47,11.47,0,0,0,10.71,16.4c14,0,27.94-.46,41.88.16,10.8.48,13.59-5.67,13.17-14.07-.15-3-1.05-4-4.08-4C1204.44-73.37,1194.8-73.47,1185.15-73.47Zm79,83.84c2.63-3,4.26-5.12,6.19-6.93,3.9-3.69,5-8,4.88-13.37-.36-15.12-.09-30.26-.15-45.4,0-11.25-6.78-18-18-18.1-10.15-.07-20.29,0-30.44,0-2.37,0-4.47-.38-4.56,3.35-.1,4,2.12,3.73,4.73,3.72,8.48,0,17-.07,25.45,0,8.29.08,11.85,3.69,11.9,11.89,0,4.65,0,9.31,0,14ZM1320-30.36c-1.32-2.33-4-4.38-6.76-6-2.45-1.45-3.94.79-5.34,2.41-5.42,6.32-10.79,12.67-16.21,19-6.62,7.7-6.75,5.11,1.27,12.57,2.27,2.11,3.7,1.88,5.62-.43,6.58-8,13.33-15.75,20-23.61A4.57,4.57,0,0,0,1320-30.36Zm-85.41,162.65c6.26,0,13,.05,19.79,0,3.63,0,5.51-2.18,5.57-5.66.12-6.73,0-13.46,0-20.17Zm21.24-30.07c-7.36,0-14.32,0-21.28,0-2.19,0-4.36.73-4.44,3.09-.22,7.5-.08,15-.08,22.69Zm-71-179.91h.5c9.39,0,9.39,0,8.85-9.33-.39-6.59-3.59-10.37-8.87-10.47s-8.29,2.88-9.27,9.28C1174.39-77.69,1174.39-77.69,1184.8-77.69Zm57.24,139c-.23-.56-.26-1-.47-1.13-2.35-2.07-4.46-5.17-7.17-5.84-2.36-.59-2.46,3.58-3.83,5.47a26.83,26.83,0,0,0-2,4c-.7,1.44-1.69,2.73.19,4.29,1.68,1.4,2.87,1.05,4.34,0,2.39-1.76,4.85-3.44,7.25-5.19A21.81,21.81,0,0,0,1242,61.35Z" transform="translate(-1020.06 135.64)" fill="#416786"/><path d="M1259.84,71.36c.05,7.49-.07,15,.21,22.47.13,3.5-1.5,4.26-4.45,4.23q-10-.07-20,0c-7.27.07-10.19,3-10.27,10.39-.08,6.65-.16,13.32,0,20,.1,3.12-1,3.92-4,3.92-36.62-.09-73.25,0-109.87-.08-5.22,0-6.45-1.58-6.45-7.74q0-65.18,0-130.34,0-24.22,0-48.44c0-6.55,1-7.57,7.53-7.58,10.49,0,21,0,31.46,0,2.29,0,4,.1,5.09,2.75,2.32,5.84,7.28,8,13.17,8.1q22.73.19,45.44,0c6.15,0,11-2.6,13.41-8.57.79-2,2.06-2.31,3.86-2.3,9.66,0,19.32,0,29,0,3.93,0,5.92,2.18,5.94,5.88C1260-33,1260-10,1260,13c0,2.65-1.66,4.26-3.15,6-7.88,9.25-15.86,18.41-23.68,27.71-4.76,5.67-8.85,12.62-9.76,19.28-.65,4.8-2.53,7.62-4.79,11-.73,1.09-.89,2.25.25,3.09a2.07,2.07,0,0,0,2.75-.31c1-.91,1.77-2,2.66-3,1.58-1.77,2.6-3.43,6-2.72s5.71-3.51,8.88-4.9c-2.84,5.44-2.35,12.29-7.17,16.91-.73.7-1.18,1.74-.27,2.63a1.16,1.16,0,0,0,1.73-.32c3.7-5.31,10.65-5,15.28-8.93C1252.15,76.5,1255.52,73.2,1259.84,71.36Zm-115.62-94c0-3.15-.14-6.31,0-9.45s-1.15-4.5-4.35-4.44q-9.45.18-18.9,0c-3.34-.07-4.38,1.56-4.29,4.58s0,6.3,0,9.45c0,13.65-.06,13.65,13.64,13.62C1144.2-8.9,1144.2-8.9,1144.22-22.63Zm0,77c0-2.84-.14-5.67,0-8.49.22-3.32-.83-4.91-4.46-4.79-6.32.21-12.66.15-19,0-2.76-.06-3.9,1-3.85,3.76.11,6.49.12,13,0,19.48-.07,3,1.13,4.12,4.13,4,6.32-.14,12.65-.16,19,0,3.4.09,4.34-1.48,4.19-4.56S1144.21,57.53,1144.21,54.37Zm-13.9-24.81c3.32,0,6.65-.06,10,0,2.64.06,4-.86,4-3.76-.11-6.65-.07-13.31,0-20,0-2.56-1.15-3.58-3.64-3.56q-10,.09-20,0c-2.54,0-3.66,1-3.62,3.55,0,3.5,0,7,0,10.48C1117,29.6,1117,29.6,1130.31,29.56Zm47.39,21.53h20.39c1.71,0,3.76-.13,3.75-2.26s-2.11-2.19-3.8-2.19q-20.38,0-40.77,0c-1.61,0-3.79-.25-3.93,2-.17,2.67,2.21,2.42,4,2.43C1164.11,51.12,1170.9,51.09,1177.7,51.09Zm5-77.63h26.39c1.48,0,3.39.15,3.54-1.8.17-2.34-1.86-2.33-3.55-2.33q-26.13,0-52.27,0c-1.67,0-3.7-.05-3.53,2.34.15,2.07,2.1,1.76,3.54,1.76Q1169.8-26.5,1182.75-26.54Zm.45,34.72c-8.8,0-17.59,0-26.39,0-1.42,0-3.38-.33-3.48,1.79-.11,2.38,1.92,2.31,3.58,2.31q26.14,0,52.27,0c1.52,0,3.36,0,3.48-1.91.15-2.45-2-2.21-3.58-2.22Q1196.14,8.14,1183.2,8.18ZM1172,19.66v0c-5,0-10,0-14.92,0-1.65,0-3.74-.09-3.78,2.18s2,2.26,3.69,2.27q14.92,0,29.85,0c1.7,0,3.64-.06,3.51-2.4-.11-2-1.92-2-3.43-2C1181.93,19.64,1177,19.66,1172,19.66Zm-.56-38.48c-5,0-10,0-15,0-1.47,0-3.28-.09-3.14,2.14.12,1.7,1.58,2,3,2q15.21,0,30.44,0c1.58,0,3.3-.26,3.16-2.25s-2-1.86-3.48-1.87C1181.4-18.82,1176.41-18.81,1171.42-18.82Zm-4.24,81.36v0c4.14,0,8.27,0,12.4,0,1.16,0,2.49-.1,2.61-1.65s-1-2.42-2.47-2.43q-11.9-.08-23.8,0c-1.44,0-2.71.62-2.62,2.3.1,1.84,1.67,1.79,3,1.81C1159.91,62.57,1163.55,62.54,1167.18,62.54Zm42.7-11.43c1.86-.16,4.51.5,4.63-2.25.11-2.47-2.33-2.3-4.09-2.21-2,.09-4.9-.77-4.85,2.42C1205.61,51.41,1208.12,51,1209.88,51.11Zm13.58-43c-1.8.63-5.09-1.07-5,2.2.09,3,3.24,2,5.18,2s4.69.85,4.75-1.92C1228.47,6.92,1225.23,8.7,1223.46,8.06Zm0-34.5c1.63-.67,5,1.26,4.82-2.3-.11-2.89-3-1.88-4.83-1.86s-5.1-1-5,2.21C1218.56-25.63,1221.57-26.86,1223.49-26.44Zm-24,46.06c-1.74.09-3.89-.14-4,2-.16,2.6,2.17,2.43,4,2.45,1.61,0,3.73.29,3.89-2C1203.44,19.39,1201.05,19.85,1199.44,19.62Zm-.25-38.48c-1.3.31-3.66-.51-3.76,1.84-.11,2.6,2.26,2.32,4,2.32,1.61,0,3.7.28,3.68-2.13S1200.9-18.61,1199.19-18.86Zm-8.35,81.65c1.47-.26,3.37-.12,3.32-2.18-.06-2.28-2-2.24-3.67-2.23s-3.27.15-3.27,2.13C1187.22,62.9,1189.34,62.52,1190.84,62.79Z" transform="translate(-1020.06 135.64)" fill="#e3ebed"/><path d="M1275.07,31.09c0,35,.08,68.66,0,102.3,0,9.66-7.21,16.64-17,16.66q-75.45.1-150.91,0c-10.45,0-17.14-6.8-17.15-17.29q-.08-94.69,0-189.38c0-9.84,6.74-16.63,16.61-16.77,12.49-.17,25,0,37.48-.08,2.54,0,4,.35,4,3.46.07,3.45-1.68,3.67-4.34,3.65q-15-.12-30,0c-9.9.07-12.89,3.08-12.89,12.78q0,88.7,0,177.39c0,10.22,2.41,12.61,12.65,12.61H1252c9.19,0,12.13-3,12.13-12.36,0-24.15.19-48.3-.12-72.45-.07-5.74,1.09-10.35,5.4-14.18A81.06,81.06,0,0,0,1275.07,31.09Z" transform="translate(-1020.06 135.64)" fill="#ed94a0"/><path d="M1185.15-73.47c9.65,0,19.29.1,28.93-.06,3,0,3.93,1,4.08,4,.42,8.4-2.37,14.55-13.17,14.07-13.94-.62-27.92-.13-41.88-.16A11.47,11.47,0,0,1,1152.4-72c.85-1.93,2.46-1.38,3.83-1.39C1165.87-73.5,1175.51-73.47,1185.15-73.47Z" transform="translate(-1020.06 135.64)" fill="#92a3a9"/><path d="M1264.13,10.37V-40.51c0-4.66,0-9.32,0-14,0-8.2-3.61-11.81-11.9-11.89-8.49-.08-17,0-25.45,0-2.61,0-4.83.25-4.73-3.72.09-3.73,2.19-3.36,4.56-3.35,10.15,0,20.29,0,30.44,0,11.23.08,18,6.85,18,18.1.06,15.14-.21,30.28.15,45.4.13,5.36-1,9.68-4.88,13.37C1268.39,5.25,1266.76,7.39,1264.13,10.37Z" transform="translate(-1020.06 135.64)" fill="#ed94a0"/><path d="M1242.11,54.54c-6.26-4.81-6.18-4.74-.93-10.78,12.6-14.52,25.1-29.12,37.68-43.65,4.93-5.7,5-5.65,10.45.24C1279.82,11.59,1270.55,23,1260.77,34,1254.62,40.9,1249.37,48.65,1242.11,54.54Z" transform="translate(-1020.06 135.64)" fill="#bad2dc"/><path d="M1320-30.36a4.57,4.57,0,0,1-1.41,3.89c-6.68,7.86-13.43,15.66-20,23.61-1.92,2.31-3.35,2.54-5.62.43-8-7.46-7.89-4.87-1.27-12.57,5.42-6.32,10.79-12.67,16.21-19,1.4-1.62,2.89-3.86,5.34-2.41C1316-34.74,1318.66-32.69,1320-30.36Z" transform="translate(-1020.06 135.64)" fill="#ed94a0"/><path d="M1259.84,71.36c-4.32,1.84-7.69,5.14-11.11,8.08-4.63,4-11.58,3.62-15.28,8.93a1.16,1.16,0,0,1-1.73.32c-.91-.89-.46-1.93.27-2.63,4.82-4.62,4.33-11.47,7.17-16.91,8-4.94,13.84-12.23,20.68-20.68Z" transform="translate(-1020.06 135.64)" fill="#bad2dc"/><path d="M1234.57,132.29l25.4-25.85c0,6.71.08,13.44,0,20.17-.06,3.48-1.94,5.62-5.57,5.66C1247.6,132.34,1240.83,132.29,1234.57,132.29Z" transform="translate(-1020.06 135.64)" fill="#e3ebed"/><path d="M1255.81,102.22,1230,128c0-7.67-.14-15.19.08-22.69.08-2.36,2.25-3.09,4.44-3.09C1241.49,102.21,1248.45,102.22,1255.81,102.22Z" transform="translate(-1020.06 135.64)" fill="#e3ebed"/><path d="M1242.11,54.54c7.26-5.89,12.51-13.64,18.66-20.54,9.78-11,19-22.41,28.54-33.65,3.18,1.42,4.28,2.7,1.33,6.06-13.58,15.47-26.87,31.18-40.18,46.87C1246.38,58.08,1246,58.25,1242.11,54.54Z" transform="translate(-1020.06 135.64)" fill="#92a3a9"/><path d="M1184.8-77.69c-10.41,0-10.41,0-8.79-10.52,1-6.4,4-9.38,9.27-9.28s8.48,3.88,8.87,10.47c.54,9.33.54,9.33-8.85,9.33Z" transform="translate(-1020.06 135.64)" fill="#92a3a9"/><path d="M1242,61.35a21.81,21.81,0,0,1-1.72,1.51c-2.4,1.75-4.86,3.43-7.25,5.19-1.47,1.1-2.66,1.45-4.34,0-1.88-1.56-.89-2.85-.19-4.29a26.83,26.83,0,0,1,2-4c1.37-1.89,1.47-6.06,3.83-5.47,2.71.67,4.82,3.77,7.17,5.84C1241.78,60.4,1241.81,60.79,1242,61.35Z" transform="translate(-1020.06 135.64)" fill="#e3ebed"/><path d="M1144.22-22.63c0,13.73,0,13.73-13.87,13.76-13.7,0-13.69,0-13.64-13.62,0-3.15.1-6.3,0-9.45s1-4.65,4.29-4.58q9.45.2,18.9,0c3.2-.06,4.52,1.23,4.35,4.44S1144.22-25.78,1144.22-22.63Zm-4.16.06c0-9.76,0-9.76-9-9.74-9.91,0-9.91,0-9.93,9.76,0,9.47,0,9.47,9.21,9.48C1140.07-13.06,1140.07-13.06,1140.06-22.57Z" transform="translate(-1020.06 135.64)" fill="#416786"/><path d="M1144.21,54.37c0,3.16-.12,6.33,0,9.48s-.79,4.65-4.19,4.56c-6.33-.16-12.66-.14-19,0-3,.07-4.2-1-4.13-4,.13-6.49.12-13,0-19.48,0-2.81,1.09-3.82,3.85-3.76,6.32.12,12.66.18,19,0,3.63-.12,4.68,1.47,4.46,4.79C1144.07,48.7,1144.21,51.53,1144.21,54.37Zm-13.57,9.82c9.41,0,9.41,0,9.43-9.32v-.49c0-9.05,0-9.05-9.2-9-9.67,0-9.67,0-9.67,9.55C1121.2,64.2,1121.2,64.2,1130.64,64.19Z" transform="translate(-1020.06 135.64)" fill="#416786"/><path d="M1130.31,29.56c-13.36,0-13.36,0-13.33-13.23,0-3.49.06-7,0-10.48,0-2.52,1.08-3.58,3.62-3.55q10,.11,20,0c2.49,0,3.66,1,3.64,3.56,0,6.65-.09,13.31,0,20,0,2.9-1.31,3.82-4,3.76C1137,29.5,1133.63,29.56,1130.31,29.56Zm-.09-4.19c9.86,0,9.86,0,9.87-9.81,0-9.14,0-9.14-9.09-9.13-9.84,0-9.84,0-9.86,9.83C1121.13,25.38,1121.13,25.38,1130.22,25.37Z" transform="translate(-1020.06 135.64)" fill="#416786"/><path d="M1177.7,51.09c-6.8,0-13.59,0-20.39,0-1.76,0-4.14.24-4-2.43.14-2.24,2.32-2,3.93-2q20.38,0,40.77,0c1.69,0,3.78,0,3.8,2.19s-2,2.26-3.75,2.26Z" transform="translate(-1020.06 135.64)" fill="#416786"/><path d="M1182.75-26.53c-8.63,0-17.26,0-25.88,0-1.44,0-3.39.31-3.54-1.76-.17-2.39,1.86-2.34,3.53-2.34q26.15,0,52.27,0c1.69,0,3.72,0,3.55,2.33-.15,1.95-2.06,1.8-3.54,1.8Z" transform="translate(-1020.06 135.64)" fill="#416786"/><path d="M1183.2,8.17q12.93,0,25.88,0c1.62,0,3.73-.23,3.58,2.22-.12,1.93-2,1.91-3.48,1.91q-26.13,0-52.27,0c-1.66,0-3.69.07-3.58-2.31.1-2.12,2.06-1.78,3.48-1.79C1165.61,8.16,1174.4,8.18,1183.2,8.17Z" transform="translate(-1020.06 135.64)" fill="#416786"/><path d="M1172,19.66c5,0,10,0,14.92,0,1.51,0,3.32.05,3.43,2,.13,2.34-1.81,2.4-3.51,2.4q-14.92,0-29.85,0c-1.67,0-3.73,0-3.69-2.27s2.13-2.17,3.78-2.18c5,0,10,0,14.92,0Z" transform="translate(-1020.06 135.64)" fill="#416786"/><path d="M1171.42-18.81c5,0,10,0,15,0,1.48,0,3.35-.14,3.48,1.87s-1.58,2.25-3.16,2.25q-15.23,0-30.44,0c-1.39,0-2.85-.26-3-2-.14-2.23,1.67-2.13,3.14-2.14C1161.43-18.84,1166.42-18.82,1171.42-18.81Z" transform="translate(-1020.06 135.64)" fill="#416786"/><path d="M1167.18,62.54c-3.63,0-7.27,0-10.91,0-1.3,0-2.87,0-3-1.81-.09-1.68,1.18-2.3,2.62-2.3q11.89-.06,23.8,0c1.48,0,2.61.78,2.47,2.43s-1.45,1.64-2.61,1.65c-4.13,0-8.26,0-12.4,0Z" transform="translate(-1020.06 135.64)" fill="#416786"/><path d="M1209.88,51.1c-1.76-.09-4.27.31-4.31-2,0-3.19,2.9-2.33,4.85-2.42,1.76-.09,4.2-.26,4.09,2.21C1214.39,51.61,1211.74,51,1209.88,51.1Z" transform="translate(-1020.06 135.64)" fill="#416786"/><path d="M1223.46,8.06c1.77.64,5-1.14,4.93,2.28-.06,2.77-3,2-4.75,1.92s-5.09,1-5.18-2C1218.37,7,1221.66,8.69,1223.46,8.06Z" transform="translate(-1020.06 135.64)" fill="#416786"/><path d="M1223.49-26.44c-1.92-.42-4.93.81-5-1.95-.09-3.21,3.08-2.19,5-2.21s4.72-1,4.83,1.86C1228.44-25.18,1225.12-27.11,1223.49-26.44Z" transform="translate(-1020.06 135.64)" fill="#416786"/><path d="M1199.44,19.62c1.61.23,4-.23,3.82,2.49-.16,2.27-2.28,2-3.89,2-1.79,0-4.12.15-4-2.45C1195.55,19.48,1197.7,19.71,1199.44,19.62Z" transform="translate(-1020.06 135.64)" fill="#416786"/><path d="M1199.19-18.86c1.71.25,3.93-.48,4,2s-2.07,2.13-3.68,2.13c-1.78,0-4.15.28-4-2.32C1195.53-19.37,1197.89-18.55,1199.19-18.86Z" transform="translate(-1020.06 135.64)" fill="#416786"/><path d="M1190.84,62.79c-1.5-.27-3.62.11-3.62-2.28,0-2,1.74-2.12,3.27-2.13s3.61-.05,3.67,2.23C1194.21,62.67,1192.31,62.53,1190.84,62.79Z" transform="translate(-1020.06 135.64)" fill="#416786"/><path d="M1140.06-22.57c0,9.51,0,9.51-9.68,9.5-9.23,0-9.23,0-9.21-9.48,0-9.72,0-9.72,9.93-9.76C1140-32.33,1140-32.33,1140.06-22.57Zm-2.71-3.77c0-1.33-.21-2.11-1.18-2.36-1.6-.42-2.33.72-3.23,1.72-1.83,2-2.29,6.86-7,3.41-1-.71-2.22.35-2.37,1.72-.19,1.88,5.53,6.23,6.9,5.09C1133.66-19.4,1135.44-23.18,1137.35-26.34Z" transform="translate(-1020.06 135.64)" fill="#e3ebed"/><path d="M1130.64,64.19c-9.44,0-9.44,0-9.44-9.3,0-9.55,0-9.55,9.67-9.55,9.21,0,9.21,0,9.2,9v.49C1140.05,64.18,1140.05,64.18,1130.64,64.19Z" transform="translate(-1020.06 135.64)" fill="#bad2dc"/><path d="M1130.22,25.37c-9.09,0-9.09,0-9.08-9.11,0-9.81,0-9.81,9.86-9.83,9.11,0,9.11,0,9.09,9.13C1140.08,25.36,1140.08,25.36,1130.22,25.37Z" transform="translate(-1020.06 135.64)" fill="#ed94a0"/><path d="M1137.35-26.34c-1.91,3.16-3.69,6.94-6.87,9.58-1.37,1.14-7.09-3.21-6.9-5.09.15-1.37,1.41-2.43,2.37-1.72,4.7,3.45,5.16-1.38,7-3.41.9-1,1.63-2.14,3.23-1.72C1137.14-28.45,1137.34-27.67,1137.35-26.34Z" transform="translate(-1020.06 135.64)" fill="#416786"/><rect width="331.87" height="331.87" fill="none"/></svg>