<svg xmlns="http://www.w3.org/2000/svg" xmlns:xlink="http://www.w3.org/1999/xlink" width="2249" height="565" viewBox="0 0 2249 565">
  <defs>
    <linearGradient id="linear-gradient" x1="0.486" y1="0.197" x2="0.271" y2="0.929" gradientUnits="objectBoundingBox">
      <stop offset="0" stop-color="#feda5f"/>
      <stop offset="0.937" stop-color="#f94af9"/>
      <stop offset="1" stop-color="#ef5eff"/>
    </linearGradient>
    <linearGradient id="linear-gradient-2" x1="0.828" y1="0.536" x2="0.457" y2="-0.289" gradientUnits="objectBoundingBox">
      <stop offset="0" stop-color="#86bffb"/>
      <stop offset="0.392" stop-color="#4e8dff"/>
      <stop offset="1" stop-color="#f958e4"/>
    </linearGradient>
    <linearGradient id="linear-gradient-3" x1="0.5" x2="1.356" y2="0.5" gradientUnits="objectBoundingBox">
      <stop offset="0" stop-color="#f668e4"/>
      <stop offset="1" stop-color="#2fa1f9"/>
    </linearGradient>
  </defs>
  <g id="Group_6" data-name="Group 6" transform="translate(3429 908)">
    <g id="Group_4" data-name="Group 4" transform="translate(-1054.946 -265.062)">
      <rect id="Rectangle_1" data-name="Rectangle 1" width="2249" height="565" transform="translate(-2374.054 -642.938)" fill="none"/>
      <g id="Group_3" data-name="Group 3" transform="translate(-2278.134 -543.172)">
        <g id="Group_2" data-name="Group 2" transform="translate(0 2.53)">
          <g id="Group_1" data-name="Group 1">
            <path id="Path_2" data-name="Path 2" d="M104.607,444.176l58.541-47.088s47.9,73.136,113.13,73.136,108-73.136,108-73.136l58.559,47.088S386.807,549.5,276.278,549.5,104.607,444.176,104.607,444.176Z" transform="translate(-87.649 -397.087)" fill="url(#linear-gradient)"/>
            <path id="Path_1" data-name="Path 1" d="M95.9,244.467l58.547-54.78,129.4,99.264,129.4-99.264,58.547,54.78L283.842,387.209Z" transform="translate(-95.897 18.342)" fill="url(#linear-gradient-2)"/>
            <path id="Path_3" data-name="Path 3" d="M-2168.7-517.157a213.568,213.568,0,0,1-36.092,3.445,250.518,250.518,0,0,1-37.891-3.445v47.226l36.069,25.392,37.915-25.392Z" transform="translate(2393.649 703.922)" fill="url(#linear-gradient-3)"/>
          </g>
        </g>
      </g>
    </g>
    <g id="Group_5" data-name="Group 5" transform="translate(-446 -1211.537)">
      <path id="Path_4" data-name="Path 4" d="M377.566,476.236c0-36.978-.043-73.958.065-110.936.011-3.643-1.955-8.987,5-8.88,36.971.57,74.075-2.449,110.891,1.672,65,7.277,95.942,49.379,96.934,111.751,1.149,72.111-45.328,122.366-117.544,125.3-28.733,1.167-57.55.2-86.321.631-7.472.112-9.281-2.438-9.2-9.724C377.777,549.449,377.564,512.842,377.566,476.236Z" transform="translate(-2130.42 114.426)" fill="#fff"/>
      <path id="Path_5" data-name="Path 5" d="M687.063,465.3c-8.076,30.148-15.782,57.772-22.713,85.592-1.731,6.945-4.741,8.943-11.481,8.74-14.193-.429-28.412-.355-42.612-.022-5.811.135-8.361-1.652-10-7.576-14.521-52.4-29.409-104.707-44.32-157-1.894-6.642-1.778-10.294,6.994-9.906,14.552.642,29.16.48,43.725.038,6.687-.2,8.9,2.444,10.157,8.7,6.141,30.569,12.781,61.04,21.142,91.673,7.724-29.077,16.031-58.017,22.859-87.3,2.44-10.46,6.471-14.148,17.12-13.16,11.12,1.03,22.426.59,33.618.094,6.57-.292,9.055,2.168,10.462,8.453,6.669,29.8,13.836,59.485,20.938,89.686,4.215-4.206,4.494-9.65,5.5-14.671,4.92-24.473,9.856-48.944,14.363-73.493,1.365-7.421,4.141-10.617,12.359-10.065,12.653.853,25.411.458,38.114.135,6.9-.175,8.13,1.892,6.188,8.541q-23.02,78.827-45.31,157.862c-1.58,5.6-3.793,8.13-9.858,8-14.947-.337-29.912-.373-44.854.018-6.137.159-8.125-2.247-9.5-7.973-6.152-25.7-12.866-51.265-19.447-76.86C689.874,472.323,688.774,469.966,687.063,465.3Z" transform="translate(-1909.417 150.565)" fill="#fff"/>
      <path id="Path_6" data-name="Path 6" d="M359.47,492.218c12.384-19.059,24.956-38,37.023-57.256,3.021-4.821,6.429-6.319,11.827-6.238,17.946.265,35.9.04,53.846.173,2.384.018,5.627-1.432,7.041,1.582,1.354,2.891-1.524,4.745-2.992,6.693-16.193,21.483-32.035,43.258-48.993,64.124-6.238,7.672-5.616,12.381,0,19.822,18,23.849,35.182,48.32,52.612,72.6,1.641,2.287,5.138,4.431,3.387,7.587-1.668,3.006-5.45,1.654-8.314,1.67-17.575.094-35.158-.249-52.722.2-6.6.168-9.948-2.559-13.25-7.87-12.808-20.6-26.125-40.89-41.411-61.242V569.8c0,8.6-.323,17.207.11,25.782.3,6.042-2.1,7.659-7.787,7.535-14.2-.305-28.421-.332-42.625,0-6.577.155-9.329-1.784-9.313-8.848q.273-117.721-.007-235.445c-.016-7.023,2.521-8.983,9.2-8.783,13.825.411,27.692.6,41.5-.063,7.831-.377,9.1,2.711,9.057,9.607-.26,44.024-.132,88.052-.132,132.08Z" transform="translate(-2229.343 107.046)" fill="#fff"/>
      <path id="Path_7" data-name="Path 7" d="M255.679,394.7c0,7.47-.177,14.947.049,22.41.215,6.979-2.281,7.643-7.872,4.339a94.028,94.028,0,0,0-51.467-13.012c-42.91,1.183-70.517,35.157-65.038,80.081,4.738,38.852,30.74,60.414,69.9,58,16.269-1,31.905-4.617,45.916-13.064,7.4-4.46,8.734-2.245,8.59,5.136-.267,13.816-.2,27.64-.013,41.46.067,4.976-1.347,8.076-6.166,10.572-44.738,23.16-118.66,12.027-152.5-24.067-26.487-28.249-32.693-63.265-28.6-100.126C76.318,395.926,125.8,353.368,196.8,354.214a214.97,214.97,0,0,1,49.736,6.687c7.241,1.807,9.787,5.317,9.255,12.521C255.272,380.48,255.681,387.607,255.679,394.7Z" transform="translate(-2516.324 112.332)" fill="#fff"/>
      <path id="Path_8" data-name="Path 8" d="M567.327,565.27c-30.792.5-58.008-8-76.248-34.28-21.391-30.819-21.461-64.932-8-98.178,12.671-31.292,39.8-45.092,72.29-48.778a115.442,115.442,0,0,1,43.353,2.794c43.532,11.753,68.62,52.811,61.637,100.658C653.119,537.132,619.575,565.174,567.327,565.27Z" transform="translate(-2010.374 148.39)" fill="#fff"/>
      <path id="Path_9" data-name="Path 9" d="M734.477,403.018c14.074-11.284,27.761-18.774,44.578-19.631,36.17-1.843,59.626,17.744,62.353,53.848,2.929,38.774.772,77.668,1.419,116.5.112,6.765-2.981,8.051-8.882,7.921-13.825-.305-27.672-.442-41.487.043-7.34.256-9.582-2.153-9.477-9.528.4-27.64.227-55.289.1-82.934a93.449,93.449,0,0,0-1.311-15.569c-2.617-14.981-9.207-21.358-21.342-21.234-11.964.121-22.361,9.308-24.262,22.188a151.868,151.868,0,0,0-1.392,21.2c-.157,25.4-.245,50.809.056,76.209.083,6.97-1.52,10.065-9.313,9.708-13.8-.629-27.656-.332-41.485-.1-5.74.1-8.938-.979-8.909-7.89q.326-79.571.025-159.146c-.02-6.276,2.833-7.416,8.2-7.311,12.33.242,24.7.615,37-.088C731.2,386.58,738.656,388,734.477,403.018Z" transform="translate(-1759.84 148.507)" fill="#fff"/>
      <path id="Path_10" data-name="Path 10" d="M371.46,448.251c-10.024-7.091-18.154-12.345-27.723-14.224-16.577-3.257-32.621-2.206-44.522,11.207-11.986,13.51-12.485,30.058-7.313,46.443,6.4,20.264,28.139,29.791,51.485,23.427a59.285,59.285,0,0,0,18.377-8.1c6.662-4.617,10.305-5.118,9.825,4.988-.552,11.555-.388,23.162-.025,34.731.18,5.778-2.083,9.241-7.3,11.012-31.584,10.709-63.321,13.01-93.4-3.513-36.563-20.087-51.48-63.8-38.311-107.019,11.7-38.4,39.016-57.9,77.536-62.9,17.084-2.218,34.3-1.564,51.045,3.8,7.27,2.332,10.949,6.108,10.53,14.52C370.941,416.961,371.46,431.361,371.46,448.251Z" transform="translate(-2316.557 148.312)" fill="#fff"/>
      <path id="Path_11" data-name="Path 11" d="M218.069,476.2c0,38.48-.191,76.961.155,115.439.074,8.312-1.538,12.215-11.014,11.591-13.028-.855-26.163-.514-39.234-.092-6.954.222-9.73-1.421-9.7-9.205q.444-117.122.056-234.242c-.016-6.855,1.2-10.076,9.068-9.706,13.8.646,27.676.626,41.478,0,7.733-.348,9.365,2.624,9.317,9.652C217.932,398.493,218.069,437.348,218.069,476.2Z" transform="translate(-2403.127 107.051)" fill="#fff"/>
      <path id="Path_12" data-name="Path 12" d="M255.071,471.89c0,25.36-.431,50.733.22,76.077.247,9.6-2.97,12.152-12.081,11.623-12.644-.732-25.371-.431-38.051-.085-6.786.186-9.993-1.257-9.941-9.185q.505-78.318.034-156.641c-.036-7.23,2.8-8.758,9.261-8.586,13.8.37,27.634.572,41.411-.065,7.778-.359,9.36,2.667,9.273,9.661C254.876,420.419,255.069,446.156,255.071,471.89Z" transform="translate(-2357.146 150.663)" fill="#fff"/>
      <path id="Path_13" data-name="Path 13" d="M227.809,350.318c19.952.126,33.041,12.743,32.776,31.6-.256,18.161-13.4,30.316-32.926,30.453-19.252.135-33.741-13.245-33.824-31.236C193.751,363.077,207.953,350.2,227.809,350.318Z" transform="translate(-2358.868 107.498)" fill="#fefefe"/>
      <path id="Path_14" data-name="Path 14" d="M404.478,447.18c0-19.766.245-39.537-.139-59.3-.126-6.487,1.039-9.8,8.426-8.891,5.147.633,10.438,0,15.658.148,39.364,1.073,63.518,22.954,64.555,62.194,1.49,56.342-32.574,77.392-84.351,73.527-5.58-.415-4.081-4.292-4.1-7.264C404.431,487.46,404.478,467.321,404.478,447.18Z" transform="translate(-2096.88 143.004)" fill="#222" stroke="rgba(0,0,0,0)" stroke-width="1"/>
      <path id="Path_15" data-name="Path 15" d="M501.431,448.049A55.277,55.277,0,0,1,505.1,424.4c4.86-12.808,15.2-19.436,29.717-19.239,14.808.2,24.489,6.884,28.677,20.442a69.691,69.691,0,0,1-.321,42.857c-4.763,14.691-14.61,21.133-30.648,20.666-15.708-.46-25.037-7.841-29.052-22.882C501.822,460.069,500.848,453.836,501.431,448.049Z" transform="translate(-1976.237 175.757)" fill="#232222"/>
    </g>
  </g>
</svg>
